g ArrowHead
v -5.960464E-08 0 1
v -5.960464E-08 1 1
v 5.960464E-08 1 -1
v 5.960464E-08 0 -1
v -5.960464E-08 -1 1
v 5.960464E-08 -1 -1
v -1 -1 0
v -1 1 0
v 1 1 0
v 1 -1 0
vt 0.5 1
vt 1 1
vt 1 0
vt 0.5000001 0
vt -5.960464E-08 1
vt 0 -5.960464E-08
vt -5.960464E-08 1
vt 1 1
vt 1 0
vt 0 -5.960464E-08
vn 1 0 0
vn 1 0 0
vn 1 0 0
vn 1 0 0
vn 1 0 0
vn 1 0 0
vn 0 0 1
vn 0 0 1
vn 0 0 1
vn 0 0 1
g ArrowHead_0
f 3/3/3 2/2/2 1/1/1
f 4/4/4 3/3/3 1/1/1
f 4/4/4 1/1/1 5/5/5
f 6/6/6 4/4/4 5/5/5
f 9/9/9 8/8/8 7/7/7
f 10/10/10 9/9/9 7/7/7
