g cfxr mesh disk
v 0.4755282 -0.1545085 6.526484E-08
v 0.4999999 -2.185569E-08 6.293389E-08
v 0.4755282 0.1545085 5.036368E-08
v 0.4045084 0.2938926 2.925378E-08
v 0.4045084 -0.2938926 5.90561E-08
v 0.2938925 -0.4045085 4.938575E-08
v 0.2938926 0.4045085 1.958343E-08
v 0.1545085 0.4755282 7.398082E-09
v 0.1545085 -0.4755282 6.700272E-08
v -6.531808E-08 -0.5 2.369284E-08
v -2.160669E-08 0.5 2.369284E-08
v -0.1545085 0.4755282 -1.961704E-08
v -0.1545085 -0.4755282 3.99876E-08
v -0.2938927 0.4045085 -3.180239E-08
v -0.2938927 -0.4045085 -2.000062E-09
v -0.4045085 0.2938925 -4.147274E-08
v -0.4045085 -0.2938925 -1.167041E-08
v -0.4755282 -0.1545086 -1.787915E-08
v -0.4755282 0.1545085 -3.278031E-08
v -0.5 5.962439E-09 -2.448889E-08
vt 0.02447176 0.3454915
vt 0 0.5
vt 0.02447173 0.6545085
vt 0.0954915 0.7938926
vt 0.0954915 0.2061074
vt 0.2061074 0.09549147
vt 0.2061074 0.9045085
vt 0.3454915 0.9755282
vt 0.3454915 0.02447176
vt 0.5000001 0
vt 0.5 1
vt 0.6545085 0.9755282
vt 0.6545085 0.02447173
vt 0.7938926 0.9045085
vt 0.7938927 0.09549153
vt 0.9045086 0.7938925
vt 0.9045086 0.2061075
vt 0.9755282 0.3454915
vt 0.9755282 0.6545086
vt 1 0.5
vn 0 0 -1
vn 0 0 -1
vn 0 0 -1
vn 0 0 -1
vn 0 0 -1
vn 0 0 -1
vn 0 0 -1
vn 0 0 -1
vn 0 0 -1
vn 0 0 -1
vn 0 0 -1
vn 0 0 -1
vn 0 0 -1
vn 0 0 -1
vn 0 0 -1
vn 0 0 -1
vn 0 0 -1
vn 0 0 -1
vn 0 0 -1
vn 0 0 -1
g cfxr mesh disk_0
f 3/3/3 2/2/2 1/1/1
f 1/1/1 4/4/4 3/3/3
f 1/1/1 5/5/5 4/4/4
f 5/5/5 6/6/6 4/4/4
f 6/6/6 7/7/7 4/4/4
f 6/6/6 8/8/8 7/7/7
f 6/6/6 9/9/9 8/8/8
f 9/9/9 10/10/10 8/8/8
f 10/10/10 11/11/11 8/8/8
f 10/10/10 12/12/12 11/11/11
f 10/10/10 13/13/13 12/12/12
f 13/13/13 14/14/14 12/12/12
f 13/13/13 15/15/15 14/14/14
f 15/15/15 16/16/16 14/14/14
f 15/15/15 17/17/17 16/16/16
f 17/17/17 18/18/18 16/16/16
f 18/18/18 19/19/19 16/16/16
f 18/18/18 20/20/20 19/19/19
