g Curve_1
v -2.715939 -0.00250682 1.490116E-08
v -2.419708 -0.1889136 -1.490116E-08
v -2.221842 0.08401249 -3.72529E-09
v -2.487272 0.3121495 3.72529E-09
v -2.03103 0.2727949 -2.607703E-08
v -2.249725 0.5460574 2.607703E-08
v -1.849241 0.3899848 -1.862645E-08
v -2.001781 0.7049948 1.862645E-08
v -1.673815 0.4502573 -2.421439E-08
v -1.746552 0.7926159 2.421439E-08
v -1.497751 0.4654592 -1.094304E-08
v -1.491493 0.8154032 1.094304E-08
v -1.314679 0.4423031 -2.793968E-09
v -1.243424 0.7849731 2.793968E-09
v -1.122589 0.3854285 -1.303852E-08
v -1.004808 0.7150155 1.303852E-08
v -0.9226419 0.3006939 -2.235174E-08
v -0.7749388 0.618001 2.235174E-08
v -0.716723 0.1956705 -2.793968E-08
v -0.5523809 0.5046878 2.793968E-08
v -0.5062354 0.07892507 -2.235174E-08
v -0.3361846 0.3848381 2.235174E-08
v -0.291791 -0.04055291 -4.097819E-08
v -0.1261903 0.2677918 4.097819E-08
v -0.07418275 -0.1530478 -1.303852E-08
v 0.07794237 0.1621631 1.303852E-08
vt 1 0
vt 1 1
vt 0.9166667 1
vt 0.9166666 0
vt 0.8333334 1
vt 0.8333333 0
vt 0.75 1
vt 0.7499999 0
vt 0.6666667 1
vt 0.6666666 0
vt 0.5833334 1
vt 0.5833333 0
vt 0.5000001 1
vt 0.5 0
vt 0.4166667 1
vt 0.4166666 0
vt 0.3333334 1
vt 0.3333333 0
vt 0.2500001 1
vt 0.25 0
vt 0.1666667 1
vt 0.1666667 0
vt 0.08333331 1
vt 0.08333331 0
vt 0 1
vt 0 0
vn 0 0 -1
vn 0 0 -1
vn 0 0 -1
vn 0 0 -1
vn 0 0 -1
vn 0 0 -1
vn 0 0 -1
vn 0 0 -1
vn 0 0 -1
vn 0 0 -1
vn 0 0 -1
vn 0 0 -1
vn 0 0 -1
vn 0 0 -1
vn 0 0 -1
vn 0 0 -1
vn 0 0 -1
vn 0 0 -1
vn 0 0 -1
vn 0 0 -1
vn 0 0 -1
vn 0 0 -1
vn 0 0 -1
vn 0 0 -1
vn 0 0 -1
vn 0 0 -1
g Curve_1_0
f 3/3/3 2/2/2 1/1/1
f 4/4/4 3/3/3 1/1/1
f 5/5/5 3/3/3 4/4/4
f 6/6/6 5/5/5 4/4/4
f 7/7/7 5/5/5 6/6/6
f 8/8/8 7/7/7 6/6/6
f 9/9/9 7/7/7 8/8/8
f 10/10/10 9/9/9 8/8/8
f 11/11/11 9/9/9 10/10/10
f 12/12/12 11/11/11 10/10/10
f 13/13/13 11/11/11 12/12/12
f 14/14/14 13/13/13 12/12/12
f 15/15/15 13/13/13 14/14/14
f 16/16/16 15/15/15 14/14/14
f 17/17/17 15/15/15 16/16/16
f 18/18/18 17/17/17 16/16/16
f 19/19/19 17/17/17 18/18/18
f 20/20/20 19/19/19 18/18/18
f 21/21/21 19/19/19 20/20/20
f 22/22/22 21/21/21 20/20/20
f 23/23/23 21/21/21 22/22/22
f 24/24/24 23/23/23 22/22/22
f 25/25/25 23/23/23 24/24/24
f 26/26/26 25/25/25 24/24/24
