g mesh.002
v -0.008491091 6.691736 -1.574949
v -1.497285 8.895666 -1.574949
v -0.8392259 7.362826 -1.574949
v 3.861319 7.703945 -1.524946
v 2.372525 9.907874 -1.524946
v 3.030584 8.375034 -1.524945
v 4.185654 7.638077 -1.574951
v 4.392193 9.986073 -1.574952
v 3.573862 6.746885 -1.57495
v 1.668252 7.483813 -1.574951
v 0.4694875 11.32299 -1.574951
v -0.719082 10.68682 -1.57495
v -1.497285 8.895666 -1.574949
v -0.008491091 6.691736 -1.574949
v -0.6890894 7.46673 0.4913454
v 1.657207 7.579939 0.4913442
v 0.08824558 6.838778 0.4913449
v -1.304848 8.901038 0.4913449
v 0.5354991 11.17233 0.4913435
v -0.576669 10.57705 0.4913442
v 4.206051 9.921352 0.4913423
v 4.012788 7.724288 0.491343
v 3.440322 6.890381 0.491344
v 8.055464 8.650286 -1.524948
v 8.262003 10.99828 -1.524949
v 7.443672 7.759093 -1.524947
v 4.339298 12.3352 -1.524948
v 5.538062 8.496021 -1.524948
v 3.150728 11.69903 -1.524947
v 2.372525 9.907874 -1.524946
v 3.861319 7.703945 -1.524946
v 3.180721 8.478937 0.5413485
v 5.527017 8.592148 0.5413473
v 3.958056 7.850987 0.5413479
v 2.564961 9.913248 0.5413479
v 4.405309 12.18454 0.5413465
v 3.293141 11.58926 0.5413473
v 8.075861 10.93356 0.5413454
v 7.882598 8.736496 0.541346
v 7.310133 7.902589 0.541347
v -1.067392 10.61343 -2.628058
v -3.724871 10.78715 -2.62806
v -0.06626041 10.0133 -2.628057
v -0.928126 8.094437 -2.628058
v -5.295023 6.839707 -2.628058
v -4.590979 5.658336 -2.628057
v -2.572497 4.904242 -2.628056
v -0.05432633 6.42636 -2.628055
v -0.8264256 5.584914 -2.628055
v -0.942035 5.733809 0.8913493
v -1.037198 8.082018 0.8913476
v -0.2195666 6.521167 0.8913488
v -2.575868 5.096891 0.8913488
v -5.123389 6.907944 0.8913466
v -4.464601 5.802512 0.8913479
v -3.654167 10.60164 0.8913453
v -1.167512 10.43909 0.891346
v -0.2307329 9.877533 0.8913476
v -9.394765 6.453094 0.8913291
v -8.735976 5.347661 0.8913302
v -8.862354 5.203485 -2.628074
v -9.5664 6.384858 -2.628076
v -5.338768 10.15858 -2.628076
v -7.996247 10.3323 -2.628078
v -4.337636 9.558447 -2.628075
v -5.199501 7.639586 -2.628076
v -9.5664 6.384858 -2.628076
v -8.862354 5.203485 -2.628074
v -6.843873 4.449392 -2.628073
v -4.325702 5.97151 -2.628073
v -5.097801 5.130064 -2.628073
v -5.21341 5.278959 0.8913316
v -5.308574 7.627168 0.89133
v -4.490942 6.066317 0.8913311
v -6.847243 4.642041 0.8913311
v -9.394765 6.453094 0.8913291
v -8.735976 5.347661 0.8913302
v -7.925542 10.14679 0.8913276
v -5.438887 9.98424 0.8913283
v -4.502109 9.422684 0.89133
v 5.527017 8.592148 0.5413473
v 7.310133 7.902589 0.541347
v 7.443672 7.759093 -1.524947
v 5.538062 8.496021 -1.524948
v -1.037198 8.082018 0.8913476
v -0.928126 8.094437 -2.628058
v -0.05432633 6.42636 -2.628055
v -0.2195666 6.521167 0.8913488
v 4.405309 12.18454 0.5413465
v 4.339298 12.3352 -1.524948
v 8.262003 10.99828 -1.524949
v 8.075861 10.93356 0.5413454
v -0.942035 5.733809 0.8913493
v -0.8264256 5.584914 -2.628055
v -2.572497 4.904242 -2.628056
v -2.575868 5.096891 0.8913488
v 3.958056 7.850987 0.5413479
v 3.861319 7.703945 -1.524946
v 3.030584 8.375034 -1.524945
v 3.180721 8.478937 0.5413485
v 5.527017 8.592148 0.5413473
v 5.538062 8.496021 -1.524948
v 3.861319 7.703945 -1.524946
v 3.958056 7.850987 0.5413479
v 2.564961 9.913248 0.5413479
v 2.372525 9.907874 -1.524946
v 3.150728 11.69903 -1.524947
v 3.293141 11.58926 0.5413473
v -0.6890894 7.46673 0.4913454
v -0.8392259 7.362826 -1.574949
v -1.497285 8.895666 -1.574949
v -1.304848 8.901038 0.4913449
v 4.012788 7.724288 0.491343
v 4.185654 7.638077 -1.574951
v 3.573862 6.746885 -1.57495
v 3.440322 6.890381 0.491344
v 7.882598 8.736496 0.541346
v 8.055464 8.650286 -1.524948
v 7.443672 7.759093 -1.524947
v 7.310133 7.902589 0.541347
v -0.576669 10.57705 0.4913442
v -0.719082 10.68682 -1.57495
v 0.4694875 11.32299 -1.574951
v 0.5354991 11.17233 0.4913435
v 4.206051 9.921352 0.4913423
v 4.392193 9.986073 -1.574952
v 4.185654 7.638077 -1.574951
v 4.012788 7.724288 0.491343
v 8.075861 10.93356 0.5413454
v 8.262003 10.99828 -1.524949
v 8.055464 8.650286 -1.524948
v 7.882598 8.736496 0.541346
v -5.21341 5.278959 0.8913316
v -5.097801 5.130064 -2.628073
v -6.843873 4.449392 -2.628073
v -6.847243 4.642041 0.8913311
v -5.438887 9.98424 0.8913283
v -5.338768 10.15858 -2.628076
v -4.337636 9.558447 -2.628075
v -4.502109 9.422684 0.89133
v -4.490942 6.066317 0.8913311
v -4.325702 5.97151 -2.628073
v -5.097801 5.130064 -2.628073
v -5.21341 5.278959 0.8913316
v -7.925542 10.14679 0.8913276
v -7.996247 10.3323 -2.628078
v -5.338768 10.15858 -2.628076
v -5.438887 9.98424 0.8913283
v -5.308574 7.627168 0.89133
v -5.199501 7.639586 -2.628076
v -4.325702 5.97151 -2.628073
v -4.490942 6.066317 0.8913311
v -6.847243 4.642041 0.8913311
v -6.843873 4.449392 -2.628073
v -8.862354 5.203485 -2.628074
v -8.735976 5.347661 0.8913302
v -0.2307329 9.877533 0.8913476
v -0.06626041 10.0133 -2.628057
v -0.928126 8.094437 -2.628058
v -1.037198 8.082018 0.8913476
v -5.123389 6.907944 0.8913466
v -5.295023 6.839707 -2.628058
v -3.724871 10.78715 -2.62806
v -3.654167 10.60164 0.8913453
v -4.464601 5.802512 0.8913479
v -4.590979 5.658336 -2.628057
v -5.295023 6.839707 -2.628058
v -5.123389 6.907944 0.8913466
v 3.180721 8.478937 0.5413485
v 3.030584 8.375034 -1.524945
v 2.372525 9.907874 -1.524946
v 2.564961 9.913248 0.5413479
v -1.304848 8.901038 0.4913449
v -1.497285 8.895666 -1.574949
v -0.719082 10.68682 -1.57495
v -0.576669 10.57705 0.4913442
v -4.502109 9.422684 0.89133
v -4.337636 9.558447 -2.628075
v -5.199501 7.639586 -2.628076
v -5.308574 7.627168 0.89133
v -0.2195666 6.521167 0.8913488
v -0.05432633 6.42636 -2.628055
v -0.8264256 5.584914 -2.628055
v -0.942035 5.733809 0.8913493
v 1.657207 7.579939 0.4913442
v 1.668252 7.483813 -1.574951
v -0.008491091 6.691736 -1.574949
v 0.08824558 6.838778 0.4913449
v -1.167512 10.43909 0.891346
v -1.067392 10.61343 -2.628058
v -0.06626041 10.0133 -2.628057
v -0.2307329 9.877533 0.8913476
v 3.293141 11.58926 0.5413473
v 3.150728 11.69903 -1.524947
v 4.339298 12.3352 -1.524948
v 4.405309 12.18454 0.5413465
v -2.575868 5.096891 0.8913488
v -2.572497 4.904242 -2.628056
v -4.590979 5.658336 -2.628057
v -4.464601 5.802512 0.8913479
v -9.394765 6.453094 0.8913291
v -9.5664 6.384858 -2.628076
v -7.996247 10.3323 -2.628078
v -7.925542 10.14679 0.8913276
v -3.654167 10.60164 0.8913453
v -3.724871 10.78715 -2.62806
v -1.067392 10.61343 -2.628058
v -1.167512 10.43909 0.891346
v 0.5354991 11.17233 0.4913435
v 0.4694875 11.32299 -1.574951
v 4.392193 9.986073 -1.574952
v 4.206051 9.921352 0.4913423
v 0.08824558 6.838778 0.4913449
v -0.008491091 6.691736 -1.574949
v -0.8392259 7.362826 -1.574949
v -0.6890894 7.46673 0.4913454
v 3.440322 6.890381 0.491344
v 3.573862 6.746885 -1.57495
v 1.668252 7.483813 -1.574951
v 1.657207 7.579939 0.4913442
vt 0.4443359 0.3859863
vt 0.4455566 0.3842773
vt 0.4445801 0.3852539
vt 0.4443359 0.3859863
vt 0.4455566 0.3842773
vt 0.4445801 0.3852539
vt 0.4387207 0.6821289
vt 0.440918 0.6821289
vt 0.4377441 0.6821289
vt 0.4379883 0.6796875
vt 0.440918 0.6777344
vt 0.4399414 0.6767578
vt 0.4382324 0.6762695
vt 0.4365234 0.6787109
vt 0.4445801 0.392334
vt 0.4453125 0.390625
vt 0.4443359 0.3916016
vt 0.4453125 0.3930664
vt 0.4475098 0.392334
vt 0.4467773 0.3930664
vt 0.4475098 0.3891602
vt 0.4458008 0.388916
vt 0.4450684 0.3891602
vt 0.4387207 0.6821289
vt 0.440918 0.6821289
vt 0.4377441 0.6821289
vt 0.440918 0.6777344
vt 0.4379883 0.6796875
vt 0.4399414 0.6767578
vt 0.4382324 0.6762695
vt 0.4365234 0.6787109
vt 0.4445801 0.392334
vt 0.4453125 0.390625
vt 0.4443359 0.3916016
vt 0.4453125 0.3930664
vt 0.4475098 0.392334
vt 0.4467773 0.3930664
vt 0.4475098 0.3891602
vt 0.4458008 0.388916
vt 0.4450684 0.3891602
vt 0.4387207 0.6821289
vt 0.440918 0.6821289
vt 0.4377441 0.6821289
vt 0.4379883 0.6796875
vt 0.440918 0.6777344
vt 0.4399414 0.6767578
vt 0.4382324 0.6762695
vt 0.4365234 0.6787109
vt 0.4370117 0.6777344
vt 0.4445801 0.392334
vt 0.4453125 0.390625
vt 0.4443359 0.3916016
vt 0.4453125 0.3930664
vt 0.4475098 0.392334
vt 0.4467773 0.3930664
vt 0.4475098 0.3891602
vt 0.4458008 0.388916
vt 0.4450684 0.3891602
vt 0.442627 0.3908691
vt 0.4418945 0.3918457
vt 0.442627 0.3933105
vt 0.4443359 0.3916016
vt 0.4387207 0.6821289
vt 0.440918 0.6821289
vt 0.4377441 0.6821289
vt 0.4379883 0.6796875
vt 0.440918 0.6777344
vt 0.4399414 0.6767578
vt 0.4382324 0.6762695
vt 0.4365234 0.6787109
vt 0.4370117 0.6777344
vt 0.4445801 0.392334
vt 0.4453125 0.390625
vt 0.4443359 0.3916016
vt 0.4453125 0.3930664
vt 0.4475098 0.392334
vt 0.4467773 0.3930664
vt 0.4475098 0.3891602
vt 0.4458008 0.388916
vt 0.4450684 0.3891602
vt 0.4394531 0.3884277
vt 0.4399414 0.3862305
vt 0.4389648 0.3847656
vt 0.4377441 0.3879395
vt 0.4394531 0.3884277
vt 0.4377441 0.3879395
vt 0.4370117 0.3908691
vt 0.4384766 0.3903809
vt 0.442627 0.3908691
vt 0.4443359 0.3916016
vt 0.4443359 0.3857422
vt 0.4431152 0.3867188
vt 0.4389648 0.3913574
vt 0.4377441 0.392334
vt 0.4396973 0.3935547
vt 0.4401855 0.392334
vt 0.4384766 0.3903809
vt 0.4370117 0.3908691
vt 0.4377441 0.392334
vt 0.4389648 0.3913574
vt 0.4394531 0.3884277
vt 0.4377441 0.3879395
vt 0.4370117 0.3908691
vt 0.4384766 0.3903809
vt 0.4401855 0.392334
vt 0.4396973 0.3935547
vt 0.442627 0.3933105
vt 0.4418945 0.3918457
vt 0.4389648 0.3913574
vt 0.4377441 0.392334
vt 0.4396973 0.3935547
vt 0.4401855 0.392334
vt 0.440918 0.3859863
vt 0.440918 0.3842773
vt 0.4389648 0.3847656
vt 0.4399414 0.3862305
vt 0.440918 0.3859863
vt 0.440918 0.3842773
vt 0.4389648 0.3847656
vt 0.4399414 0.3862305
vt 0.4418945 0.3918457
vt 0.442627 0.3933105
vt 0.4443359 0.3916016
vt 0.442627 0.3908691
vt 0.4431152 0.3867188
vt 0.4443359 0.3857422
vt 0.440918 0.3842773
vt 0.440918 0.3859863
vt 0.4431152 0.3867188
vt 0.4443359 0.3857422
vt 0.440918 0.3842773
vt 0.440918 0.3859863
vt 0.4389648 0.3913574
vt 0.4377441 0.392334
vt 0.4396973 0.3935547
vt 0.4401855 0.392334
vt 0.440918 0.3859863
vt 0.440918 0.3842773
vt 0.4389648 0.3847656
vt 0.4399414 0.3862305
vt 0.4384766 0.3903809
vt 0.4370117 0.3908691
vt 0.4377441 0.392334
vt 0.4389648 0.3913574
vt 0.4431152 0.3867188
vt 0.4443359 0.3857422
vt 0.440918 0.3842773
vt 0.440918 0.3859863
vt 0.4394531 0.3884277
vt 0.4377441 0.3879395
vt 0.4370117 0.3908691
vt 0.4384766 0.3903809
vt 0.4401855 0.392334
vt 0.4396973 0.3935547
vt 0.442627 0.3933105
vt 0.4418945 0.3918457
vt 0.4399414 0.3862305
vt 0.4389648 0.3847656
vt 0.4377441 0.3879395
vt 0.4394531 0.3884277
vt 0.442627 0.3908691
vt 0.4443359 0.3916016
vt 0.4443359 0.3857422
vt 0.4431152 0.3867188
vt 0.4418945 0.3918457
vt 0.442627 0.3933105
vt 0.4443359 0.3916016
vt 0.442627 0.3908691
vt 0.4389648 0.3913574
vt 0.4377441 0.392334
vt 0.4396973 0.3935547
vt 0.4401855 0.392334
vt 0.4401855 0.392334
vt 0.4396973 0.3935547
vt 0.442627 0.3933105
vt 0.4418945 0.3918457
vt 0.4399414 0.3862305
vt 0.4389648 0.3847656
vt 0.4377441 0.3879395
vt 0.4394531 0.3884277
vt 0.4384766 0.3903809
vt 0.4370117 0.3908691
vt 0.4377441 0.392334
vt 0.4389648 0.3913574
vt 0.4394531 0.3884277
vt 0.4377441 0.3879395
vt 0.4370117 0.3908691
vt 0.4384766 0.3903809
vt 0.440918 0.3859863
vt 0.440918 0.3842773
vt 0.4389648 0.3847656
vt 0.4399414 0.3862305
vt 0.4418945 0.3918457
vt 0.442627 0.3933105
vt 0.4443359 0.3916016
vt 0.442627 0.3908691
vt 0.4401855 0.392334
vt 0.4396973 0.3935547
vt 0.442627 0.3933105
vt 0.4418945 0.3918457
vt 0.442627 0.3908691
vt 0.4443359 0.3916016
vt 0.4443359 0.3857422
vt 0.4431152 0.3867188
vt 0.4431152 0.3867188
vt 0.4443359 0.3857422
vt 0.440918 0.3842773
vt 0.440918 0.3859863
vt 0.442627 0.3908691
vt 0.4443359 0.3916016
vt 0.4443359 0.3857422
vt 0.4431152 0.3867188
vt 0.4384766 0.3903809
vt 0.4370117 0.3908691
vt 0.4377441 0.392334
vt 0.4389648 0.3913574
vt 0.4399414 0.3862305
vt 0.4389648 0.3847656
vt 0.4377441 0.3879395
vt 0.4394531 0.3884277
vn -1.072884E-06 -8.34465E-07 -1
vn -1.072884E-06 -8.34465E-07 -1
vn -1.072884E-06 -8.34465E-07 -1
vn -1.072884E-06 -8.34465E-07 -1
vn -1.072884E-06 -8.34465E-07 -1
vn -1.072884E-06 -8.34465E-07 -1
vn 0 -5.960464E-07 -1
vn 0 -5.960464E-07 -1
vn 0 -5.960464E-07 -1
vn -7.152557E-07 -2.980232E-07 -1
vn -7.152557E-07 -2.980232E-07 -1
vn -7.152557E-07 -2.980232E-07 -1
vn -6.556511E-07 -2.980232E-07 -1
vn -6.556511E-07 -2.980232E-07 -1
vn 5.364418E-07 0 1
vn 5.364418E-07 0 1
vn 5.364418E-07 0 1
vn 5.364418E-07 2.384186E-07 1
vn 5.364418E-07 2.384186E-07 1
vn 5.364418E-07 2.384186E-07 1
vn 4.768372E-07 2.980232E-07 1
vn 4.768372E-07 8.34465E-07 1
vn 4.768372E-07 8.34465E-07 1
vn 0 -5.960464E-07 -1
vn -2.980232E-07 -1.788139E-07 -1
vn -2.980232E-07 -1.788139E-07 -1
vn -2.980232E-07 -1.788139E-07 -1
vn -2.980232E-07 -1.788139E-07 -1
vn -7.152557E-07 -1.788139E-07 -1
vn -6.556511E-07 -3.576279E-07 -1
vn -6.556511E-07 -3.576279E-07 -1
vn 4.172325E-07 3.576279E-07 1
vn 4.172325E-07 3.576279E-07 1
vn 5.364418E-07 0 1
vn 4.172325E-07 3.576279E-07 1
vn 4.172325E-07 3.576279E-07 1
vn 5.364418E-07 1.788139E-07 1
vn 4.768372E-07 2.980232E-07 1
vn 4.768372E-07 2.980232E-07 1
vn 4.768372E-07 8.940697E-07 1
vn 7.152557E-07 1.370907E-06 -1
vn 7.152557E-07 1.370907E-06 -1
vn 7.152557E-07 1.370907E-06 -1
vn 4.172325E-07 -1.072884E-06 -1
vn 2.384186E-07 -6.556511E-07 -1
vn 4.172325E-07 -1.072884E-06 -1
vn 4.172325E-07 -1.072884E-06 -1
vn 4.172325E-07 -1.072884E-06 -1
vn 8.34465E-07 0 -1
vn -1.192093E-07 7.152557E-07 1
vn -1.192093E-07 7.152557E-07 1
vn -1.192093E-07 7.152557E-07 1
vn -5.364418E-07 7.152557E-07 1
vn -1.192093E-07 1.192093E-06 1
vn -1.192093E-07 1.192093E-06 1
vn -2.384186E-07 6.556511E-07 1
vn -2.384186E-07 6.556511E-07 1
vn -1.430511E-06 5.960464E-07 1
vn -0.8579102 -0.5112305 0.05175781
vn -0.8579102 -0.5112305 0.05175781
vn -0.8579102 -0.5112305 0.05175781
vn -0.8579102 -0.5112305 0.05175781
vn 7.152557E-07 0 -1
vn 2.384186E-07 -6.556511E-07 -1
vn 7.152557E-07 0 -1
vn 2.384186E-07 -6.556511E-07 -1
vn 2.384186E-07 -6.556511E-07 -1
vn 2.384186E-07 -6.556511E-07 -1
vn 4.172325E-07 -1.013279E-06 -1
vn 4.172325E-07 -1.013279E-06 -1
vn 8.34465E-07 0 -1
vn -1.192093E-07 6.556511E-07 1
vn -1.192093E-07 6.556511E-07 1
vn -1.192093E-07 6.556511E-07 1
vn -5.364418E-07 7.152557E-07 1
vn -1.192093E-07 8.940697E-07 1
vn -1.192093E-07 8.940697E-07 1
vn -2.384186E-07 6.556511E-07 1
vn -2.384186E-07 6.556511E-07 1
vn -1.430511E-06 6.556511E-07 1
vn -0.3603516 -0.9321289 0.04141235
vn -0.3603516 -0.9321289 0.04141235
vn -0.3603516 -0.9321289 0.04141235
vn -0.3603516 -0.9321289 0.04141235
vn 0.8852539 0.4638672 0.02908325
vn 0.8852539 0.4638672 0.02908325
vn 0.8852539 0.4638672 0.02908325
vn 0.8852539 0.4638672 0.02908325
vn 0.3220215 0.9448242 0.05859375
vn 0.3220215 0.9448242 0.05859375
vn 0.3220215 0.9448242 0.05859375
vn 0.3220215 0.9448242 0.05859375
vn 0.362793 -0.9306641 0.05126953
vn 0.362793 -0.9306641 0.05126953
vn 0.362793 -0.9306641 0.05126953
vn 0.362793 -0.9306641 0.05126953
vn -0.6259766 -0.7749023 0.08447266
vn -0.6259766 -0.7749023 0.08447266
vn -0.6259766 -0.7749023 0.08447266
vn -0.6259766 -0.7749023 0.08447266
vn 0.4267578 -0.9033203 0.04431152
vn 0.4267578 -0.9033203 0.04431152
vn 0.4267578 -0.9033203 0.04431152
vn 0.4267578 -0.9033203 0.04431152
vn -0.9140625 0.3969727 0.08410645
vn -0.9140625 0.3969727 0.08410645
vn -0.9140625 0.3969727 0.08410645
vn -0.9140625 0.3969727 0.08410645
vn -0.9155273 -0.3930664 0.08630371
vn -0.9155273 -0.3930664 0.08630371
vn -0.9155273 -0.3930664 0.08630371
vn -0.9155273 -0.3930664 0.08630371
vn 0.8208008 -0.5634766 0.09216309
vn 0.8208008 -0.5634766 0.09216309
vn 0.8208008 -0.5634766 0.09216309
vn 0.8208008 -0.5634766 0.09216309
vn 0.8208008 -0.5634766 0.09216309
vn 0.8208008 -0.5634766 0.09216309
vn 0.8208008 -0.5634766 0.09216309
vn 0.8208008 -0.5634766 0.09216309
vn -0.470459 0.8789063 0.07910156
vn -0.470459 0.8789063 0.07910156
vn -0.470459 0.8789063 0.07910156
vn -0.470459 0.8789063 0.07910156
vn 0.9921875 -0.08728027 0.08666992
vn 0.9921875 -0.08728027 0.08666992
vn 0.9921875 -0.08728027 0.08666992
vn 0.9921875 -0.08728027 0.08666992
vn 0.9921875 -0.08728027 0.08666992
vn 0.9921875 -0.08728027 0.08666992
vn 0.9921875 -0.08728027 0.08666992
vn 0.9921875 -0.08728027 0.08666992
vn 0.362793 -0.9306641 0.05126953
vn 0.362793 -0.9306641 0.05126953
vn 0.362793 -0.9306641 0.05126953
vn 0.362793 -0.9306641 0.05126953
vn 0.5131836 0.8564453 0.05700684
vn 0.5131836 0.8564453 0.05700684
vn 0.5131836 0.8564453 0.05700684
vn 0.5131836 0.8564453 0.05700684
vn 0.7358398 -0.675293 0.05273438
vn 0.7358398 -0.675293 0.05273438
vn 0.7358398 -0.675293 0.05273438
vn 0.7358398 -0.675293 0.05273438
vn 0.06512451 0.996582 0.0512085
vn 0.06512451 0.996582 0.0512085
vn 0.06512451 0.996582 0.0512085
vn 0.06512451 0.996582 0.0512085
vn 0.8852539 0.4638672 0.02908325
vn 0.8852539 0.4638672 0.02908325
vn 0.8852539 0.4638672 0.02908325
vn 0.8852539 0.4638672 0.02908325
vn -0.3496094 -0.9355469 0.0508728
vn -0.3496094 -0.9355469 0.0508728
vn -0.3496094 -0.9355469 0.0508728
vn -0.3496094 -0.9355469 0.0508728
vn 0.9121094 -0.409668 0.02680969
vn 0.9121094 -0.409668 0.02680969
vn 0.9121094 -0.409668 0.02680969
vn 0.9121094 -0.409668 0.02680969
vn -0.9287109 0.3693848 0.03811646
vn -0.9287109 0.3693848 0.03811646
vn -0.9287109 0.3693848 0.03811646
vn -0.9287109 0.3693848 0.03811646
vn -0.8579102 -0.5112305 0.05175781
vn -0.8579102 -0.5112305 0.05175781
vn -0.8579102 -0.5112305 0.05175781
vn -0.8579102 -0.5112305 0.05175781
vn -0.9155273 -0.3930664 0.08630371
vn -0.9155273 -0.3930664 0.08630371
vn -0.9155273 -0.3930664 0.08630371
vn -0.9155273 -0.3930664 0.08630371
vn -0.9140625 0.3969727 0.08410645
vn -0.9140625 0.3969727 0.08410645
vn -0.9140625 0.3969727 0.08410645
vn -0.9140625 0.3969727 0.08410645
vn 0.9121094 -0.409668 0.02680969
vn 0.9121094 -0.409668 0.02680969
vn 0.9121094 -0.409668 0.02680969
vn 0.9121094 -0.409668 0.02680969
vn 0.7358398 -0.675293 0.05273438
vn 0.7358398 -0.675293 0.05273438
vn 0.7358398 -0.675293 0.05273438
vn 0.7358398 -0.675293 0.05273438
vn 0.4267578 -0.9033203 0.04431152
vn 0.4267578 -0.9033203 0.04431152
vn 0.4267578 -0.9033203 0.04431152
vn 0.4267578 -0.9033203 0.04431152
vn 0.5131836 0.8564453 0.05700684
vn 0.5131836 0.8564453 0.05700684
vn 0.5131836 0.8564453 0.05700684
vn 0.5131836 0.8564453 0.05700684
vn -0.470459 0.8789063 0.07910156
vn -0.470459 0.8789063 0.07910156
vn -0.470459 0.8789063 0.07910156
vn -0.470459 0.8789063 0.07910156
vn -0.3496094 -0.9355469 0.0508728
vn -0.3496094 -0.9355469 0.0508728
vn -0.3496094 -0.9355469 0.0508728
vn -0.3496094 -0.9355469 0.0508728
vn -0.9287109 0.3693848 0.03811646
vn -0.9287109 0.3693848 0.03811646
vn -0.9287109 0.3693848 0.03811646
vn -0.9287109 0.3693848 0.03811646
vn 0.06512451 0.996582 0.0512085
vn 0.06512451 0.996582 0.0512085
vn 0.06512451 0.996582 0.0512085
vn 0.06512451 0.996582 0.0512085
vn 0.3220215 0.9448242 0.05859375
vn 0.3220215 0.9448242 0.05859375
vn 0.3220215 0.9448242 0.05859375
vn 0.3220215 0.9448242 0.05859375
vn -0.6259766 -0.7749023 0.08447266
vn -0.6259766 -0.7749023 0.08447266
vn -0.6259766 -0.7749023 0.08447266
vn -0.6259766 -0.7749023 0.08447266
vn -0.3603516 -0.9321289 0.04141235
vn -0.3603516 -0.9321289 0.04141235
vn -0.3603516 -0.9321289 0.04141235
vn -0.3603516 -0.9321289 0.04141235
g mesh.002_0
f 3/3/3 2/2/2 1/1/1
f 6/6/6 5/5/5 4/4/4
f 9/9/9 8/8/8 7/7/7
f 8/8/8 9/9/9 10/10/10
f 11/11/11 8/8/8 10/10/10
f 10/10/10 12/12/12 11/11/11
f 13/13/13 12/12/12 10/10/10
f 14/14/14 13/13/13 10/10/10
f 17/17/17 16/16/16 15/15/15
f 18/18/18 15/15/15 16/16/16
f 19/19/19 18/18/18 16/16/16
f 18/18/18 19/19/19 20/20/20
f 21/21/21 19/19/19 16/16/16
f 22/22/22 21/21/21 16/16/16
f 23/23/23 22/22/22 16/16/16
f 26/26/26 25/25/25 24/24/24
f 27/27/27 25/25/25 26/26/26
f 28/28/28 27/27/27 26/26/26
f 28/28/28 29/29/29 27/27/27
f 30/30/30 29/29/29 28/28/28
f 31/31/31 30/30/30 28/28/28
f 34/34/34 33/33/33 32/32/32
f 35/35/35 32/32/32 33/33/33
f 36/36/36 35/35/35 33/33/33
f 35/35/35 36/36/36 37/37/37
f 38/38/38 36/36/36 33/33/33
f 39/39/39 38/38/38 33/33/33
f 40/40/40 39/39/39 33/33/33
f 43/43/43 42/42/42 41/41/41
f 44/44/44 42/42/42 43/43/43
f 45/45/45 42/42/42 44/44/44
f 46/46/46 45/45/45 44/44/44
f 47/47/47 46/46/46 44/44/44
f 48/48/48 47/47/47 44/44/44
f 49/49/49 47/47/47 48/48/48
f 52/52/52 51/51/51 50/50/50
f 50/50/50 51/51/51 53/53/53
f 54/54/54 53/53/53 51/51/51
f 53/53/53 54/54/54 55/55/55
f 56/56/56 54/54/54 51/51/51
f 51/51/51 57/57/57 56/56/56
f 58/58/58 57/57/57 51/51/51
f 61/61/61 60/60/60 59/59/59
f 62/62/62 61/61/61 59/59/59
f 65/65/65 64/64/64 63/63/63
f 66/66/66 64/64/64 65/65/65
f 67/67/67 64/64/64 66/66/66
f 68/68/68 67/67/67 66/66/66
f 69/69/69 68/68/68 66/66/66
f 70/70/70 69/69/69 66/66/66
f 71/71/71 69/69/69 70/70/70
f 74/74/74 73/73/73 72/72/72
f 72/72/72 73/73/73 75/75/75
f 76/76/76 75/75/75 73/73/73
f 75/75/75 76/76/76 77/77/77
f 78/78/78 76/76/76 73/73/73
f 73/73/73 79/79/79 78/78/78
f 80/80/80 79/79/79 73/73/73
f 83/83/83 82/82/82 81/81/81
f 84/84/84 83/83/83 81/81/81
f 87/87/87 86/86/86 85/85/85
f 88/88/88 87/87/87 85/85/85
f 91/91/91 90/90/90 89/89/89
f 92/92/92 91/91/91 89/89/89
f 95/95/95 94/94/94 93/93/93
f 96/96/96 95/95/95 93/93/93
f 99/99/99 98/98/98 97/97/97
f 100/100/100 99/99/99 97/97/97
f 103/103/103 102/102/102 101/101/101
f 104/104/104 103/103/103 101/101/101
f 107/107/107 106/106/106 105/105/105
f 108/108/108 107/107/107 105/105/105
f 111/111/111 110/110/110 109/109/109
f 112/112/112 111/111/111 109/109/109
f 115/115/115 114/114/114 113/113/113
f 116/116/116 115/115/115 113/113/113
f 119/119/119 118/118/118 117/117/117
f 120/120/120 119/119/119 117/117/117
f 123/123/123 122/122/122 121/121/121
f 124/124/124 123/123/123 121/121/121
f 127/127/127 126/126/126 125/125/125
f 128/128/128 127/127/127 125/125/125
f 131/131/131 130/130/130 129/129/129
f 132/132/132 131/131/131 129/129/129
f 135/135/135 134/134/134 133/133/133
f 136/136/136 135/135/135 133/133/133
f 139/139/139 138/138/138 137/137/137
f 140/140/140 139/139/139 137/137/137
f 143/143/143 142/142/142 141/141/141
f 144/144/144 143/143/143 141/141/141
f 147/147/147 146/146/146 145/145/145
f 148/148/148 147/147/147 145/145/145
f 151/151/151 150/150/150 149/149/149
f 152/152/152 151/151/151 149/149/149
f 155/155/155 154/154/154 153/153/153
f 156/156/156 155/155/155 153/153/153
f 159/159/159 158/158/158 157/157/157
f 160/160/160 159/159/159 157/157/157
f 163/163/163 162/162/162 161/161/161
f 164/164/164 163/163/163 161/161/161
f 167/167/167 166/166/166 165/165/165
f 168/168/168 167/167/167 165/165/165
f 171/171/171 170/170/170 169/169/169
f 172/172/172 171/171/171 169/169/169
f 175/175/175 174/174/174 173/173/173
f 176/176/176 175/175/175 173/173/173
f 179/179/179 178/178/178 177/177/177
f 180/180/180 179/179/179 177/177/177
f 183/183/183 182/182/182 181/181/181
f 184/184/184 183/183/183 181/181/181
f 187/187/187 186/186/186 185/185/185
f 188/188/188 187/187/187 185/185/185
f 191/191/191 190/190/190 189/189/189
f 192/192/192 191/191/191 189/189/189
f 195/195/195 194/194/194 193/193/193
f 196/196/196 195/195/195 193/193/193
f 199/199/199 198/198/198 197/197/197
f 200/200/200 199/199/199 197/197/197
f 203/203/203 202/202/202 201/201/201
f 204/204/204 203/203/203 201/201/201
f 207/207/207 206/206/206 205/205/205
f 208/208/208 207/207/207 205/205/205
f 211/211/211 210/210/210 209/209/209
f 212/212/212 211/211/211 209/209/209
f 215/215/215 214/214/214 213/213/213
f 216/216/216 215/215/215 213/213/213
f 219/219/219 218/218/218 217/217/217
f 220/220/220 219/219/219 217/217/217
