g MuzzleCone
v 5.170211E-06 -55.72157 -18.06098
v 10.8644 -54.65151 -18.06098
v 0.01990978 -0.1000631 0
v 1.165612E-05 -0.1020229 0
v 0.03904323 -0.09425899 0
v 21.31128 -51.48248 -18.06098
v 0.05667666 -0.08483373 0
v 30.93918 -46.33627 -18.06098
v 0.07213254 -0.07214947 0
v 39.3781 -39.41063 -18.06098
v 0.0848169 -0.05669359 0
v 46.30375 -30.9717 -18.06098
v 0.09424216 -0.03906011 0
v 51.44996 -21.3438 -18.06098
v 0.1000462 -0.01992669 0
v 54.61899 -10.89692 -18.06098
v 0.102006 -2.857725E-05 0
v 55.68904 -0.032534 -18.06098
v 0.1000462 0.01986951 0
v 54.619 10.83185 -18.06098
v 0.09424216 0.03900293 0
v 51.44997 21.27873 -18.06098
v 0.0848169 0.05663645 0
v 46.30375 30.90664 -18.06097
v 0.07213254 0.07209235 0
v 39.3781 39.34557 -18.06097
v 0.05667666 0.08477659 0
v 30.93917 46.27121 -18.06097
v 0.03904316 0.09420188 0
v 21.31127 51.41743 -18.06097
v 0.01990974 0.1000059 0
v 10.86438 54.58646 -18.06097
v 1.162288E-05 0.1019659 0
v -1.297558E-05 55.65651 -18.06097
v -0.01988651 0.1000059 0
v -10.86441 54.58645 -18.06097
v -0.03901996 0.09420188 0
v -21.31129 51.41742 -18.06097
v -0.05665342 0.08477659 0
v -30.9392 46.27119 -18.06097
v -0.07210933 0.07209219 0
v -39.37812 39.34554 -18.06097
v -0.08479357 0.05663633 0
v -46.30376 30.90661 -18.06097
v -0.09421888 0.03900293 0
v -51.44997 21.2787 -18.06097
v -0.1000229 0.01986944 0
v -54.61899 10.83181 -18.06097
v -0.1019826 -2.866804E-05 0
v -55.68903 -0.03258356 -18.06097
v -0.1000229 -0.01992677 0
v -54.61897 -10.89698 -18.06097
v -0.09421888 -0.03906018 0
v -51.44994 -21.34386 -18.06098
v -0.08479343 -0.05669375 0
v -46.3037 -30.97176 -18.06098
v -0.07210919 -0.07214947 0
v -39.37804 -39.41068 -18.06098
v -0.05665328 -0.08483387 0
v -30.93911 -46.33631 -18.06098
v -0.03901974 -0.09425914 0
v -21.31119 -51.48252 -18.06098
v -0.01988629 -0.1000631 0
v -10.8643 -54.65153 -18.06098
v 1.165612E-05 -0.1020229 0
v 5.170211E-06 -55.72157 -18.06098
v -14.83305 -74.61842 -28.28342
v 2.671399E-06 -76.07933 -28.28342
v -29.0962 -70.29176 -28.28342
v -42.2412 -63.26563 -28.28342
v -53.76289 -53.81005 -28.28342
v -63.21851 -42.28838 -28.28342
v -70.24466 -29.1434 -28.28342
v -74.57136 -14.88026 -28.28342
v -76.03231 -0.04709176 -28.28342
v -74.57138 14.78608 -28.28342
v -70.24471 29.04923 -28.28342
v -63.21858 42.19423 -28.28342
v -53.763 53.71592 -28.28342
v -42.24132 63.17152 -28.28342
v -29.09633 70.19765 -28.28342
v -14.8332 74.52435 -28.28342
v -2.210307E-05 75.98529 -28.28342
v 14.83315 74.52435 -28.28342
v 29.0963 70.19768 -28.28342
v 42.24129 63.17154 -28.28342
v 53.76297 53.71595 -28.28342
v 63.21856 42.19427 -28.28342
v 70.2447 29.04928 -28.28342
v 74.57138 14.78614 -28.28342
v 76.03232 -0.04702409 -28.28342
v 74.57137 -14.88019 -28.28342
v 70.24468 -29.14332 -28.28342
v 63.21856 -42.2883 -28.28342
v 53.76297 -53.80998 -28.28342
v 42.24129 -63.26556 -28.28342
v 29.09631 -70.29171 -28.28342
v 14.83317 -74.61839 -28.28342
v 2.671399E-06 -76.07933 -28.28342
v 8.462347E-07 -92.81419 -41.97178
v 18.09363 -91.03214 -41.97178
v 0 -100.0988 -54.02549
v 19.50903 -98.17733 -54.02549
v 35.49194 -85.75441 -41.97178
v 38.26834 -92.48676 -54.02549
v 51.5263 -77.18387 -41.97178
v 55.55703 -83.24576 -54.02549
v 65.58054 -65.64986 -41.97178
v 70.71068 -70.80949 -54.02549
v 77.11456 -51.59561 -41.97178
v 83.14696 -55.65583 -54.02549
v 85.6851 -35.56125 -41.97178
v 92.38795 -38.36716 -54.02549
v 90.96282 -18.16295 -41.97178
v 98.07852 -19.60785 -54.02549
v 92.74489 -0.06931976 -41.97178
v 100 -0.09882457 -54.02549
v 90.96283 18.02431 -41.97178
v 98.07852 19.4102 -54.02549
v 85.6851 35.42261 -41.97178
v 92.38795 38.16951 -54.02549
v 77.11456 51.45699 -41.97178
v 83.14696 55.4582 -54.02549
v 65.58054 65.51124 -41.97178
v 70.71068 70.61187 -54.02549
v 51.52629 77.04526 -41.97178
v 55.55701 83.04815 -54.02549
v 35.49192 85.61581 -41.97178
v 38.26833 92.28915 -54.02549
v 18.09361 90.89352 -41.97178
v 19.50901 97.97971 -54.02549
v -2.937388E-05 92.67558 -41.97178
v -3.258414E-05 99.90119 -54.02549
v -18.09367 90.89352 -41.97178
v -19.50907 97.97971 -54.02549
v -35.49197 85.61578 -41.97178
v -38.26839 92.28912 -54.02549
v -51.52634 77.04522 -41.97178
v -55.55707 83.04811 -54.02549
v -65.58057 65.5112 -41.97178
v -70.71072 70.61182 -54.02549
v -77.11459 51.45694 -41.97178
v -83.147 55.45815 -54.02549
v -85.68513 35.42255 -41.97178
v -92.38799 38.16945 -54.02549
v -90.96284 18.02424 -41.97178
v -98.07854 19.41013 -54.02549
v -92.74488 -0.06940231 -41.97178
v -100 -0.09891358 -54.02549
v -90.9628 -18.16304 -41.97178
v -98.07851 -19.60795 -54.02549
v -85.68506 -35.56134 -41.97178
v -92.38791 -38.36726 -54.02549
v -77.11449 -51.59571 -41.97178
v -83.1469 -55.65594 -54.02549
v -65.58044 -65.64994 -41.97178
v -70.71059 -70.80958 -54.02549
v -51.52619 -77.18393 -41.97178
v -55.55691 -83.24583 -54.02549
v -35.49181 -85.75447 -41.97178
v -38.26821 -92.48682 -54.02549
v -18.09349 -91.03217 -41.97178
v -19.50888 -98.17736 -54.02549
v 8.462347E-07 -92.81419 -41.97178
v 0 -100.0988 -54.02549
vt 1 0.4435621
vt 0.96875 0.443562
vt 0.9687499 1
vt 0.9999999 1
vt 0.9374999 1
vt 0.9375001 0.4435621
vt 0.9062499 1
vt 0.90625 0.443562
vt 0.8749999 1
vt 0.875 0.443562
vt 0.8437499 1
vt 0.8437501 0.443562
vt 0.8124999 1
vt 0.8125 0.443562
vt 0.7812499 1
vt 0.78125 0.443562
vt 0.7499999 1
vt 0.75 0.443562
vt 0.7187499 1
vt 0.71875 0.443562
vt 0.6874999 1
vt 0.6874999 0.443562
vt 0.6562499 1
vt 0.65625 0.443562
vt 0.6249999 1
vt 0.625 0.443562
vt 0.5937499 1
vt 0.59375 0.443562
vt 0.5624999 1
vt 0.5625 0.443562
vt 0.5312499 1
vt 0.53125 0.443562
vt 0.4999999 1
vt 0.5 0.443562
vt 0.4687499 1
vt 0.4687499 0.443562
vt 0.4374999 1
vt 0.4375 0.443562
vt 0.4062499 1
vt 0.4062499 0.443562
vt 0.3749999 1
vt 0.375 0.443562
vt 0.3437499 1
vt 0.34375 0.443562
vt 0.3124999 1
vt 0.3125 0.443562
vt 0.2812499 1
vt 0.28125 0.4435621
vt 0.25 1
vt 0.25 0.443562
vt 0.21875 1
vt 0.21875 0.443562
vt 0.1875 1
vt 0.1875 0.443562
vt 0.15625 1
vt 0.15625 0.443562
vt 0.125 1
vt 0.125 0.443562
vt 0.09374996 1
vt 0.09374998 0.4435621
vt 0.06249995 1
vt 0.06249998 0.443562
vt 0.03124995 1
vt 0.03124998 0.443562
vt -4.842877E-08 1
vt -2.148117E-08 0.443562
vt 0.03124999 0.2881972
vt -1.395704E-08 0.2881973
vt 0.06249999 0.2881973
vt 0.09374999 0.2881973
vt 0.125 0.2881973
vt 0.15625 0.2881973
vt 0.1875 0.2881973
vt 0.21875 0.2881972
vt 0.25 0.2881973
vt 0.28125 0.2881972
vt 0.3125 0.2881973
vt 0.34375 0.2881973
vt 0.375 0.2881973
vt 0.4062499 0.2881972
vt 0.4375 0.2881973
vt 0.4687499 0.2881972
vt 0.5 0.2881973
vt 0.53125 0.2881972
vt 0.5625 0.2881973
vt 0.59375 0.2881973
vt 0.625 0.2881972
vt 0.65625 0.2881973
vt 0.6875 0.2881973
vt 0.71875 0.2881972
vt 0.75 0.2881973
vt 0.78125 0.2881972
vt 0.8125001 0.2881973
vt 0.84375 0.2881973
vt 0.875 0.2881973
vt 0.9062499 0.2881972
vt 0.9375 0.2881973
vt 0.96875 0.2881973
vt 1 0.2881973
vt 1 0.09961477
vt 0.96875 0.09961464
vt 1 0
vt 0.96875 0
vt 0.9375001 0.09961475
vt 0.9375 0
vt 0.90625 0.09961469
vt 0.90625 0
vt 0.8750001 0.09961469
vt 0.875 0
vt 0.84375 0.09961476
vt 0.84375 0
vt 0.8125001 0.09961472
vt 0.8125 0
vt 0.78125 0.09961468
vt 0.78125 0
vt 0.75 0.09961469
vt 0.75 0
vt 0.71875 0.09961465
vt 0.71875 0
vt 0.6875001 0.09961475
vt 0.6875 0
vt 0.65625 0.09961474
vt 0.65625 0
vt 0.625 0.09961466
vt 0.625 0
vt 0.59375 0.09961472
vt 0.59375 0
vt 0.5625 0.09961468
vt 0.5625 0
vt 0.53125 0.09961469
vt 0.53125 0
vt 0.5 0.09961473
vt 0.5 0
vt 0.4687499 0.09961469
vt 0.46875 0
vt 0.4375 0.09961469
vt 0.4375 0
vt 0.40625 0.09961472
vt 0.40625 0
vt 0.3749999 0.09961469
vt 0.375 0
vt 0.34375 0.09961478
vt 0.34375 0
vt 0.3125 0.09961471
vt 0.3125 0
vt 0.28125 0.09961465
vt 0.28125 0
vt 0.25 0.09961472
vt 0.25 0
vt 0.21875 0.09961466
vt 0.21875 0
vt 0.1875 0.09961469
vt 0.1875 0
vt 0.15625 0.09961468
vt 0.15625 0
vt 0.125 0.09961469
vt 0.125 0
vt 0.09375 0.09961472
vt 0.09375 0
vt 0.0625 0.09961469
vt 0.0625 0
vt 0.03124999 0.09961468
vt 0.03125 0
vt -4.824219E-09 0.09961473
vt 0 0
vn -2.110209E-07 0.3839118 -0.9233697
vn -0.07489947 0.3765389 -0.923368
vn -0.06025631 0.3029164 -0.9511102
vn -1.612494E-07 0.3088483 -0.9511113
vn -0.1182 0.2853485 -0.9511073
vn -0.146925 0.3547025 -0.9233629
vn -0.1716076 0.2568173 -0.9511024
vn -0.2133126 0.3192394 -0.9233547
vn -0.2184284 0.2184167 -0.9510958
vn -0.2715137 0.2715082 -0.9233437
vn -0.2568637 0.1716191 -0.9510877
vn -0.3192926 0.2133388 -0.9233303
vn -0.2854359 0.1182196 -0.9510785
vn -0.3548122 0.1469623 -0.9233149
vn -0.303045 0.06026776 -0.9510686
vn -0.3767049 0.07492575 -0.9232982
vn -0.3090116 -1.151486E-05 -0.9510583
vn -0.3841256 -5.446051E-06 -0.9232809
vn -0.303103 -0.0603027 -0.951048
vn -0.3767847 -0.07495284 -0.9232634
vn -0.2855431 -0.1182876 -0.9510379
vn -0.3549594 -0.1470346 -0.9232467
vn -0.257004 -0.1717361 -0.9510288
vn -0.3194851 -0.2134785 -0.9232314
vn -0.2185801 -0.2185918 -0.9510208
vn -0.271722 -0.2717277 -0.9232179
vn -0.1717477 -0.2570503 -0.9510141
vn -0.213505 -0.3195384 -0.9232068
vn -0.1183072 -0.2856307 -0.9510092
vn -0.1470721 -0.3550692 -0.9231986
vn -0.06031422 -0.3032317 -0.9510062
vn -0.07497902 -0.3769509 -0.9231935
vn 0 -0.309175 -0.9510052
vn 0 -0.3843396 -0.9231918
vn 0.06031442 -0.3032316 -0.9510062
vn 0.07497929 -0.3769507 -0.9231935
vn 0.1183073 -0.2856306 -0.9510092
vn 0.1470724 -0.3550692 -0.9231985
vn 0.1717478 -0.2570503 -0.9510141
vn 0.2135051 -0.3195384 -0.9232068
vn 0.2185802 -0.2185916 -0.9510208
vn 0.2717222 -0.2717274 -0.9232179
vn 0.2570039 -0.1717358 -0.9510288
vn 0.3194852 -0.2134783 -0.9232314
vn 0.2855432 -0.1182871 -0.9510379
vn 0.3549596 -0.1470343 -0.9232467
vn 0.3031031 -0.06030231 -0.951048
vn 0.3767846 -0.07495243 -0.9232635
vn 0.3090115 -1.148015E-05 -0.9510583
vn 0.3841255 -5.333983E-06 -0.9232809
vn 0.3030449 0.06026796 -0.9510686
vn 0.3767048 0.07492603 -0.9232982
vn 0.2854357 0.11822 -0.9510785
vn 0.354812 0.1469628 -0.9233148
vn 0.2568634 0.1716194 -0.9510878
vn 0.3192924 0.2133392 -0.9233303
vn 0.218428 0.2184169 -0.9510958
vn 0.2715133 0.2715085 -0.9233438
vn 0.1716071 0.2568175 -0.9511024
vn 0.2133121 0.3192396 -0.9233548
vn 0.1181995 0.2853487 -0.9511073
vn 0.1469244 0.3547027 -0.9233629
vn 0.0602559 0.3029165 -0.9511102
vn 0.07489899 0.376539 -0.923368
vn -1.612494E-07 0.3088483 -0.9511113
vn -2.110209E-07 0.3839118 -0.9233697
vn 0.1071143 0.5384877 -0.8357976
vn -2.614397E-07 0.5490301 -0.8358025
vn 0.2101212 0.5072638 -0.8357827
vn 0.3050686 0.4565534 -0.8357584
vn 0.3883126 0.3882984 -0.8357258
vn 0.4566559 0.3051131 -0.8356862
vn 0.5074703 0.2101864 -0.8356408
vn 0.5387984 0.1071589 -0.8355916
vn 0.5494289 -1.49529E-05 -0.8355405
vn 0.5389453 -0.1072178 -0.8354893
vn 0.507742 -0.2103285 -0.83544
vn 0.4570111 -0.3053798 -0.8353946
vn 0.3886972 -0.3887119 -0.8353548
vn 0.3054238 -0.4571141 -0.8353221
vn 0.2103934 -0.507949 -0.8352978
vn 0.107262 -0.5392563 -0.8352829
vn 0 -0.549828 -0.8352779
vn -0.1072616 -0.5392563 -0.8352829
vn -0.2103929 -0.5079492 -0.8352979
vn -0.3054235 -0.4571142 -0.8353221
vn -0.3886969 -0.3887122 -0.8353547
vn -0.4570109 -0.30538 -0.8353946
vn -0.5077419 -0.2103289 -0.8354399
vn -0.5389453 -0.1072184 -0.8354892
vn -0.549429 -1.520356E-05 -0.8355404
vn -0.5387986 0.1071585 -0.8355916
vn -0.5074705 0.2101857 -0.8356407
vn -0.4566564 0.3051125 -0.8356861
vn -0.3883132 0.3882979 -0.8357258
vn -0.3050691 0.456553 -0.8357584
vn -0.2101219 0.5072635 -0.8357826
vn -0.107115 0.5384876 -0.8357976
vn -2.614397E-07 0.5490301 -0.8358025
vn -3.162598E-07 0.7599672 -0.6499614
vn -0.1482735 0.7453782 -0.6499434
vn -3.393993E-07 0.8558478 -0.5172278
vn -0.1669506 0.8394245 -0.5171983
vn -0.2908657 0.7021683 -0.6498898
vn -0.3275081 0.7907811 -0.5171108
vn -0.4223104 0.6319887 -0.6498032
vn -0.475521 0.7117742 -0.5169693
vn -0.537566 0.5375226 -0.6496863
vn -0.6053142 0.6054211 -0.5167785
vn -0.6322067 0.4223833 -0.6495438
vn -0.7119046 0.4757861 -0.5165457
vn -0.7025917 0.2909794 -0.6493812
vn -0.791191 0.3278289 -0.51628
vn -0.7460071 0.1483467 -0.6492045
vn -0.840114 0.1672163 -0.5159914
vn -0.7607706 -4.331416E-05 -0.6490209
vn -0.8567746 0.0001072896 -0.5156911
vn -0.7462978 -0.1484915 -0.6488372
vn -0.8405095 -0.1670807 -0.5153911
vn -0.7031288 -0.2912891 -0.6486607
vn -0.7919216 -0.3279174 -0.5151024
vn -0.6329088 -0.4229392 -0.6484974
vn -0.7128595 -0.4762098 -0.5148354
vn -0.538326 -0.5383695 -0.6483544
vn -0.6063479 -0.6062405 -0.5146014
vn -0.4230124 -0.6331264 -0.6482372
vn -0.4764759 -0.7129892 -0.5144097
vn -0.2914028 -0.7035525 -0.6481498
vn -0.3282388 -0.7923313 -0.5142668
vn -0.1485642 -0.7469271 -0.6480962
vn -0.167346 -0.8411987 -0.5141789
vn 1.265392E-07 -0.7615739 -0.6480781
vn 2.557323E-07 -0.8577007 -0.5141493
vn 0.1485648 -0.746927 -0.6480962
vn 0.1673468 -0.8411986 -0.5141791
vn 0.2914034 -0.7035522 -0.6481499
vn 0.3282393 -0.7923312 -0.5142669
vn 0.4230128 -0.6331263 -0.6482371
vn 0.4764762 -0.712989 -0.5144096
vn 0.5383263 -0.5383691 -0.6483545
vn 0.6063482 -0.60624 -0.5146018
vn 0.6329088 -0.4229389 -0.6484976
vn 0.7128595 -0.4762095 -0.5148357
vn 0.7031292 -0.2912885 -0.6486605
vn 0.7919222 -0.3279169 -0.5151019
vn 0.7462981 -0.1484907 -0.6488373
vn 0.8405097 -0.1670798 -0.5153909
vn 0.7607703 -4.28397E-05 -0.6490213
vn 0.8567742 0.0001078798 -0.5156919
vn 0.7460067 0.1483473 -0.6492049
vn 0.8401134 0.1672169 -0.5159922
vn 0.7025911 0.2909802 -0.6493815
vn 0.7911903 0.3278297 -0.5162804
vn 0.6322058 0.4223841 -0.649544
vn 0.7119037 0.4757871 -0.5165461
vn 0.5375651 0.5375233 -0.6496865
vn 0.6053132 0.6054218 -0.5167789
vn 0.4223095 0.6319892 -0.6498032
vn 0.4755199 0.7117747 -0.5169696
vn 0.2908647 0.7021686 -0.6498899
vn 0.327507 0.7907814 -0.5171111
vn 0.1482727 0.7453783 -0.6499434
vn 0.1669497 0.8394247 -0.5171983
vn -3.162598E-07 0.7599672 -0.6499614
vn -3.393993E-07 0.8558478 -0.5172278
g MuzzleCone_0
f 3/3/3 2/2/2 1/1/1
f 4/4/4 3/3/3 1/1/1
f 3/3/3 5/5/5 2/2/2
f 5/5/5 6/6/6 2/2/2
f 5/5/5 7/7/7 6/6/6
f 7/7/7 8/8/8 6/6/6
f 7/7/7 9/9/9 8/8/8
f 9/9/9 10/10/10 8/8/8
f 9/9/9 11/11/11 10/10/10
f 11/11/11 12/12/12 10/10/10
f 11/11/11 13/13/13 12/12/12
f 13/13/13 14/14/14 12/12/12
f 13/13/13 15/15/15 14/14/14
f 15/15/15 16/16/16 14/14/14
f 15/15/15 17/17/17 16/16/16
f 17/17/17 18/18/18 16/16/16
f 17/17/17 19/19/19 18/18/18
f 19/19/19 20/20/20 18/18/18
f 19/19/19 21/21/21 20/20/20
f 21/21/21 22/22/22 20/20/20
f 21/21/21 23/23/23 22/22/22
f 23/23/23 24/24/24 22/22/22
f 23/23/23 25/25/25 24/24/24
f 25/25/25 26/26/26 24/24/24
f 25/25/25 27/27/27 26/26/26
f 27/27/27 28/28/28 26/26/26
f 27/27/27 29/29/29 28/28/28
f 29/29/29 30/30/30 28/28/28
f 29/29/29 31/31/31 30/30/30
f 31/31/31 32/32/32 30/30/30
f 31/31/31 33/33/33 32/32/32
f 33/33/33 34/34/34 32/32/32
f 33/33/33 35/35/35 34/34/34
f 35/35/35 36/36/36 34/34/34
f 35/35/35 37/37/37 36/36/36
f 37/37/37 38/38/38 36/36/36
f 37/37/37 39/39/39 38/38/38
f 39/39/39 40/40/40 38/38/38
f 39/39/39 41/41/41 40/40/40
f 41/41/41 42/42/42 40/40/40
f 41/41/41 43/43/43 42/42/42
f 43/43/43 44/44/44 42/42/42
f 43/43/43 45/45/45 44/44/44
f 45/45/45 46/46/46 44/44/44
f 45/45/45 47/47/47 46/46/46
f 47/47/47 48/48/48 46/46/46
f 47/47/47 49/49/49 48/48/48
f 49/49/49 50/50/50 48/48/48
f 49/49/49 51/51/51 50/50/50
f 51/51/51 52/52/52 50/50/50
f 51/51/51 53/53/53 52/52/52
f 53/53/53 54/54/54 52/52/52
f 53/53/53 55/55/55 54/54/54
f 55/55/55 56/56/56 54/54/54
f 55/55/55 57/57/57 56/56/56
f 57/57/57 58/58/58 56/56/56
f 57/57/57 59/59/59 58/58/58
f 59/59/59 60/60/60 58/58/58
f 59/59/59 61/61/61 60/60/60
f 61/61/61 62/62/62 60/60/60
f 61/61/61 63/63/63 62/62/62
f 63/63/63 64/64/64 62/62/62
f 63/63/63 65/65/65 64/64/64
f 65/65/65 66/66/66 64/64/64
f 64/64/64 66/66/66 67/67/67
f 66/66/66 68/68/68 67/67/67
f 64/64/64 67/67/67 69/69/69
f 62/62/62 64/64/64 69/69/69
f 62/62/62 69/69/69 70/70/70
f 60/60/60 62/62/62 70/70/70
f 60/60/60 70/70/70 71/71/71
f 58/58/58 60/60/60 71/71/71
f 58/58/58 71/71/71 72/72/72
f 56/56/56 58/58/58 72/72/72
f 56/56/56 72/72/72 73/73/73
f 54/54/54 56/56/56 73/73/73
f 54/54/54 73/73/73 74/74/74
f 52/52/52 54/54/54 74/74/74
f 52/52/52 74/74/74 75/75/75
f 50/50/50 52/52/52 75/75/75
f 50/50/50 75/75/75 76/76/76
f 48/48/48 50/50/50 76/76/76
f 48/48/48 76/76/76 77/77/77
f 46/46/46 48/48/48 77/77/77
f 46/46/46 77/77/77 78/78/78
f 44/44/44 46/46/46 78/78/78
f 44/44/44 78/78/78 79/79/79
f 42/42/42 44/44/44 79/79/79
f 42/42/42 79/79/79 80/80/80
f 40/40/40 42/42/42 80/80/80
f 40/40/40 80/80/80 81/81/81
f 38/38/38 40/40/40 81/81/81
f 38/38/38 81/81/81 82/82/82
f 36/36/36 38/38/38 82/82/82
f 36/36/36 82/82/82 83/83/83
f 34/34/34 36/36/36 83/83/83
f 34/34/34 83/83/83 84/84/84
f 32/32/32 34/34/34 84/84/84
f 32/32/32 84/84/84 85/85/85
f 30/30/30 32/32/32 85/85/85
f 30/30/30 85/85/85 86/86/86
f 28/28/28 30/30/30 86/86/86
f 28/28/28 86/86/86 87/87/87
f 26/26/26 28/28/28 87/87/87
f 26/26/26 87/87/87 88/88/88
f 24/24/24 26/26/26 88/88/88
f 24/24/24 88/88/88 89/89/89
f 22/22/22 24/24/24 89/89/89
f 22/22/22 89/89/89 90/90/90
f 20/20/20 22/22/22 90/90/90
f 20/20/20 90/90/90 91/91/91
f 18/18/18 20/20/20 91/91/91
f 18/18/18 91/91/91 92/92/92
f 16/16/16 18/18/18 92/92/92
f 16/16/16 92/92/92 93/93/93
f 14/14/14 16/16/16 93/93/93
f 14/14/14 93/93/93 94/94/94
f 12/12/12 14/14/14 94/94/94
f 12/12/12 94/94/94 95/95/95
f 10/10/10 12/12/12 95/95/95
f 10/10/10 95/95/95 96/96/96
f 8/8/8 10/10/10 96/96/96
f 8/8/8 96/96/96 97/97/97
f 6/6/6 8/8/8 97/97/97
f 6/6/6 97/97/97 98/98/98
f 2/2/2 6/6/6 98/98/98
f 2/2/2 98/98/98 99/99/99
f 1/1/1 2/2/2 99/99/99
f 99/99/99 98/98/98 100/100/100
f 98/98/98 101/101/101 100/100/100
f 98/98/98 97/97/97 101/101/101
f 100/100/100 101/101/101 102/102/102
f 101/101/101 103/103/103 102/102/102
f 101/101/101 104/104/104 103/103/103
f 97/97/97 104/104/104 101/101/101
f 97/97/97 96/96/96 104/104/104
f 104/104/104 105/105/105 103/103/103
f 104/104/104 106/106/106 105/105/105
f 96/96/96 106/106/106 104/104/104
f 106/106/106 107/107/107 105/105/105
f 106/106/106 108/108/108 107/107/107
f 108/108/108 109/109/109 107/107/107
f 95/95/95 108/108/108 106/106/106
f 96/96/96 95/95/95 106/106/106
f 108/108/108 110/110/110 109/109/109
f 110/110/110 111/111/111 109/109/109
f 94/94/94 110/110/110 108/108/108
f 95/95/95 94/94/94 108/108/108
f 110/110/110 112/112/112 111/111/111
f 112/112/112 113/113/113 111/111/111
f 93/93/93 112/112/112 110/110/110
f 94/94/94 93/93/93 110/110/110
f 112/112/112 114/114/114 113/113/113
f 114/114/114 115/115/115 113/113/113
f 92/92/92 114/114/114 112/112/112
f 93/93/93 92/92/92 112/112/112
f 114/114/114 116/116/116 115/115/115
f 116/116/116 117/117/117 115/115/115
f 91/91/91 116/116/116 114/114/114
f 92/92/92 91/91/91 114/114/114
f 116/116/116 118/118/118 117/117/117
f 118/118/118 119/119/119 117/117/117
f 90/90/90 118/118/118 116/116/116
f 91/91/91 90/90/90 116/116/116
f 118/118/118 120/120/120 119/119/119
f 120/120/120 121/121/121 119/119/119
f 89/89/89 120/120/120 118/118/118
f 90/90/90 89/89/89 118/118/118
f 120/120/120 122/122/122 121/121/121
f 122/122/122 123/123/123 121/121/121
f 88/88/88 122/122/122 120/120/120
f 89/89/89 88/88/88 120/120/120
f 122/122/122 124/124/124 123/123/123
f 124/124/124 125/125/125 123/123/123
f 87/87/87 124/124/124 122/122/122
f 88/88/88 87/87/87 122/122/122
f 124/124/124 126/126/126 125/125/125
f 126/126/126 127/127/127 125/125/125
f 86/86/86 126/126/126 124/124/124
f 87/87/87 86/86/86 124/124/124
f 126/126/126 128/128/128 127/127/127
f 128/128/128 129/129/129 127/127/127
f 85/85/85 128/128/128 126/126/126
f 86/86/86 85/85/85 126/126/126
f 128/128/128 130/130/130 129/129/129
f 130/130/130 131/131/131 129/129/129
f 84/84/84 130/130/130 128/128/128
f 85/85/85 84/84/84 128/128/128
f 130/130/130 132/132/132 131/131/131
f 132/132/132 133/133/133 131/131/131
f 83/83/83 132/132/132 130/130/130
f 84/84/84 83/83/83 130/130/130
f 132/132/132 134/134/134 133/133/133
f 134/134/134 135/135/135 133/133/133
f 82/82/82 134/134/134 132/132/132
f 83/83/83 82/82/82 132/132/132
f 134/134/134 136/136/136 135/135/135
f 136/136/136 137/137/137 135/135/135
f 81/81/81 136/136/136 134/134/134
f 82/82/82 81/81/81 134/134/134
f 136/136/136 138/138/138 137/137/137
f 138/138/138 139/139/139 137/137/137
f 80/80/80 138/138/138 136/136/136
f 81/81/81 80/80/80 136/136/136
f 138/138/138 140/140/140 139/139/139
f 140/140/140 141/141/141 139/139/139
f 79/79/79 140/140/140 138/138/138
f 80/80/80 79/79/79 138/138/138
f 140/140/140 142/142/142 141/141/141
f 142/142/142 143/143/143 141/141/141
f 78/78/78 142/142/142 140/140/140
f 79/79/79 78/78/78 140/140/140
f 142/142/142 144/144/144 143/143/143
f 144/144/144 145/145/145 143/143/143
f 77/77/77 144/144/144 142/142/142
f 78/78/78 77/77/77 142/142/142
f 144/144/144 146/146/146 145/145/145
f 146/146/146 147/147/147 145/145/145
f 76/76/76 146/146/146 144/144/144
f 77/77/77 76/76/76 144/144/144
f 146/146/146 148/148/148 147/147/147
f 148/148/148 149/149/149 147/147/147
f 75/75/75 148/148/148 146/146/146
f 76/76/76 75/75/75 146/146/146
f 148/148/148 150/150/150 149/149/149
f 150/150/150 151/151/151 149/149/149
f 74/74/74 150/150/150 148/148/148
f 75/75/75 74/74/74 148/148/148
f 150/150/150 152/152/152 151/151/151
f 152/152/152 153/153/153 151/151/151
f 73/73/73 152/152/152 150/150/150
f 74/74/74 73/73/73 150/150/150
f 152/152/152 154/154/154 153/153/153
f 154/154/154 155/155/155 153/153/153
f 72/72/72 154/154/154 152/152/152
f 73/73/73 72/72/72 152/152/152
f 154/154/154 156/156/156 155/155/155
f 156/156/156 157/157/157 155/155/155
f 71/71/71 156/156/156 154/154/154
f 72/72/72 71/71/71 154/154/154
f 156/156/156 158/158/158 157/157/157
f 158/158/158 159/159/159 157/157/157
f 70/70/70 158/158/158 156/156/156
f 71/71/71 70/70/70 156/156/156
f 158/158/158 160/160/160 159/159/159
f 160/160/160 161/161/161 159/159/159
f 69/69/69 160/160/160 158/158/158
f 70/70/70 69/69/69 158/158/158
f 160/160/160 162/162/162 161/161/161
f 162/162/162 163/163/163 161/161/161
f 67/67/67 162/162/162 160/160/160
f 69/69/69 67/67/67 160/160/160
f 162/162/162 164/164/164 163/163/163
f 164/164/164 165/165/165 163/163/163
f 68/68/68 164/164/164 162/162/162
f 67/67/67 68/68/68 162/162/162
